<svg width="27" height="27" viewBox="0 0 27 27" fill="none" xmlns="http://www.w3.org/2000/svg">
<path fill-rule="evenodd" clip-rule="evenodd" d="M7.73191 22.6169C8.58449 23.1545 10.0156 23.7867 10.6246 24.0356L10.9291 24.2597L11.0813 24.4836L11.1575 24.9317L11.0813 25.529L10.853 25.7531L10.3201 25.9771H9.71111L8.87376 25.7531L7.12292 25.0064L5.82883 24.2597L4.53473 23.2142L3.62125 22.3929L2.93614 21.4968L2.02266 20.2273L1.4898 19.1073L1.03306 18.1366L0.576324 16.7925L0.347956 15.9712L0.195707 15.1497L0.119576 14.179L0.043457 12.9842L0.119576 11.7894L0.271825 10.5201L0.576324 9.39998L0.804692 8.65328L1.03306 8.05594L1.41368 7.15988L1.94653 6.18913L2.55552 5.36775L3.16452 4.62105L4.30636 3.6503L5.06759 3.05297L6.28557 2.23158L7.12292 1.78349L8.11252 1.33552L9.33049 0.962107L10.244 0.738181L11.3858 0.514136L12.2232 0.439453H13.3651H14.2024L15.1159 0.514136L15.9533 0.738181L16.5623 0.887425L17.6279 1.18615L18.6936 1.63425L20.0639 2.30627L21.358 3.05297L21.8908 3.50094L22.9566 4.397L23.3372 4.8451L23.9462 5.51711L24.6313 6.48786L25.088 7.23456L25.5448 8.27999L25.697 8.72796L26.0776 9.84807L26.306 10.8188L26.4583 11.7149L26.6105 13.1336V13.955L26.5344 14.627L26.4583 15.3737L26.306 16.1951L26.0015 17.3152L25.6209 18.3606L25.0119 19.63L24.479 20.4514L23.6417 21.5715L23.2611 22.0194L22.8043 22.5422L22.1192 23.2142L21.0535 24.0356L20.5206 24.4089L19.9116 24.7823L18.8459 25.305L17.8563 25.7531L16.7905 26.0518L16.4099 26.1264L15.9533 26.2757L15.2682 26.3504L14.7353 26.4251L14.2785 26.4998H13.5934H13.2128L12.8322 26.3504L12.5277 26.0518L12.3755 25.4543V24.633V23.7369V22.6169V21.8701V21.5715V21.4221H12.071H11.6903L11.2336 21.3474L10.7769 21.1981L9.93948 20.8995L9.33049 20.6007L9.02601 20.4514L7.88416 19.7047L7.42742 19.2567L6.89455 18.8086L6.28557 18.0619L5.90495 17.4646L5.52433 16.7179L5.06759 15.6724L4.91534 15.2243L4.83923 14.8511L4.76309 14.4776L4.68698 13.955L4.61086 12.8349V12.5363L4.68698 11.8641L4.76309 11.4908L4.91534 11.0427L4.99147 10.7441V10.5948L4.45861 10.2214L2.93614 9.25074L2.7839 9.47466L2.55552 9.99744L2.40328 10.3707L2.32715 10.7441L2.25103 11.3415L2.17491 12.0882L2.09878 13.2083L2.17491 14.7017L2.32715 15.5231L2.55552 16.1204L2.86002 16.7925L3.24064 17.6885L3.7735 18.6592L4.23024 19.4059L4.83923 20.1528L5.29596 20.6007L5.82883 21.1981L6.59006 21.8701L7.73191 22.6169ZM5.37208 9.54934L6.13332 8.13062V8.05594L4.07799 6.86115L4.83923 5.96509L5.21984 5.59179L5.98108 4.91978L6.66618 4.47169L7.35129 4.02371L8.0364 3.6503L9.25438 3.20233L10.0156 2.9036L10.4724 2.82892L11.0052 2.67956L11.7665 2.60487L12.5277 2.53031H13.2128L14.583 2.60487L16.0294 2.9036L17.095 3.20233L18.0846 3.6503L19.0742 4.09839L19.7594 4.54637L20.3684 4.99446L21.0535 5.59179L21.5863 6.11445L22.0431 6.71191L22.2714 7.0852L20.2922 8.20531L21.2057 9.62403L24.3268 8.05594L23.9462 7.45861L23.6417 7.0852L23.1849 6.41318L22.7282 5.89052L22.1953 5.29307L21.5863 4.77041L20.6728 4.09839L20.2161 3.72498L19.3787 3.20233L18.3891 2.75424L17.095 2.30627L16.3339 2.00754L15.5727 1.78349L15.0398 1.63425L14.2785 1.48488H11.9948L11.0813 1.63425L10.4724 1.78349L9.71111 2.00754L8.79764 2.30627L8.18864 2.53031L7.57966 2.82892L6.97067 3.12765L6.51393 3.42626L6.13332 3.72498L5.7527 3.94903L4.99147 4.47169L4.38249 4.99446L3.7735 5.59179L3.39289 6.03977L3.01227 6.56254L2.70777 6.93583L2.4794 7.30924L2.32715 7.60785L5.37208 9.54934ZM13.4412 24.3344V21.4221H14.2785L15.4204 21.3474L16.1815 21.1234L17.095 20.8248L17.8563 20.3767L18.9981 19.63L19.7594 18.8833L20.5967 17.9125L21.1296 17.1658L21.6625 15.8965L21.9669 14.4776L22.0431 13.5069V12.4616L21.8147 11.3415L21.5102 10.5201L23.7939 9.47466L24.0984 10.4454L24.3268 11.7149L24.4029 13.4323L24.3268 14.627L24.0984 15.7471L23.7939 16.7925L23.1849 18.2859L22.6521 19.3314L21.8908 20.2273L21.1296 21.0487L20.2161 21.8701L19.0742 22.6169L18.0846 23.1396L16.6383 23.7369L14.7353 24.185L13.4412 24.3344ZM12.3755 20.6007V19.854L11.579 19.7793L10.7769 19.5553L9.71111 18.958L8.64539 18.1366L8.26477 17.7632L7.50354 16.7179L7.0468 15.7471L6.81843 15.1497L6.59006 14.179L6.51393 13.5816L6.59006 12.2375L6.7423 11.5655L6.89455 10.9681L7.27517 10.1467L7.65579 9.54934L8.18864 8.80264L8.87376 8.20531L9.55886 7.60785L10.3962 7.15988L11.0813 6.93583L11.9187 6.78647H13.2889H14.3547L14.9637 6.86115L16.0294 7.30924L17.2473 8.05594L18.1608 8.95201L18.8459 9.84807L19.3787 10.6695L19.6832 11.4908L19.9116 12.3122L19.9877 13.1336L19.9116 14.5523L19.8355 14.8511L19.6071 15.6724L19.3026 16.3445L18.9981 16.8671L18.5414 17.4646L18.2369 17.8379L17.9324 18.1366L17.6279 18.4353L17.0189 18.8833L16.486 19.182L16.1054 19.4059L15.4204 19.63L14.8114 19.7793L14.2024 19.854H13.4412V20.6007H14.2024L15.0398 20.526L15.5727 20.3767L16.1815 20.1528L16.8668 19.7793L17.5518 19.3314L18.313 18.7339L18.9981 18.0619L19.6071 17.3152L20.14 16.4191L20.5206 15.5978L20.749 14.627L20.8251 13.8803L20.749 13.1336L20.6728 12.3122L20.3684 11.3415L20.0639 10.5201L19.4549 9.39998L18.8459 8.5786L18.3891 8.13062L19.6832 7.38392L19.1504 6.86115L18.3891 6.3385L17.5518 5.81584L16.7144 5.44243L15.8009 5.06902L15.1159 4.8451L14.2785 4.69573H12.3755L11.6142 4.77041L10.853 4.99446L10.1679 5.21839L9.63499 5.44243L9.10213 5.74116L8.34089 6.18913L7.80804 6.56254L7.35129 7.01051L7.0468 7.38392L8.18864 8.05594L7.50354 8.80264L7.19905 9.17605L6.89455 9.62403L6.59006 10.0721L6.36168 10.5948L6.13332 11.2668L5.90495 12.0882V12.9096V13.8056L5.98108 14.4776L6.13332 15.0751L6.36168 15.7471L6.66618 16.4191L7.0468 17.0912L7.42742 17.7632L8.41702 18.8086L8.94988 19.182L9.86336 19.854L10.853 20.302L11.6142 20.526L12.3755 20.6007ZM12.8322 18.1366V16.0457L12.2055 15.8965L11.6903 15.6724L11.1575 15.2243L10.7769 14.7017L10.5485 14.0297V13.6563V12.8349L10.7769 12.2375L11.0813 11.7149L11.462 11.3415L11.9187 11.0427L12.5277 10.7441L12.8322 10.5948V8.5786H12.5277L11.9187 8.65328L11.462 8.80264L10.853 9.10137L10.3201 9.47466L9.55886 10.2214L8.94988 10.8935L8.64539 11.7149L8.41702 12.3869L8.34089 13.4323L8.41702 14.7017L8.56926 15.1497L8.94988 15.7471L9.40662 16.4191L10.0156 17.0912L10.853 17.6885L11.579 17.9872L12.2055 18.0619L12.8322 18.1366ZM14.2024 18.0619L13.5934 18.1366L13.6696 16.0457L14.2024 15.8965L14.8114 15.6724L15.2682 15.299L15.6488 14.8511L15.9533 14.179L16.0294 13.5816V12.9096L15.877 12.5363L15.7249 12.1629L15.4204 11.7149L15.0398 11.3415L14.583 11.0427L14.2024 10.8188L13.6696 10.5948V8.5786H13.9741L14.4308 8.65328L14.9637 8.80264L15.5727 9.10137L16.1054 9.47466L16.9428 10.2214L17.3234 10.7441L17.7801 11.7149L18.0085 12.3869L18.2369 13.4323L18.1608 14.179L17.9324 15.0751L17.5518 15.7471L17.2473 16.4191L16.5623 17.0912L15.6488 17.6885L14.8114 17.9872L14.2024 18.0619ZM13.6696 11.5655H13.2889H12.8322L12.4516 11.7149L12.071 11.9388L11.8426 12.1629L11.579 12.6109L11.462 13.0589V13.8056L11.579 14.1044L11.8426 14.4776L12.2055 14.8511L12.8322 15.2243C13.1367 15.2243 13.5477 15.2842 13.6696 15.2243L14.3547 14.8511L14.7353 14.5523L14.9637 14.0297L15.0398 13.5816V13.0589L14.9637 12.6855L14.6592 12.1629L14.2024 11.7894L13.6696 11.5655Z" fill="white"/>
</svg>
